<svg id="visual" viewBox="0 0 1920 1080" width="1920" height="1080" xmlns="http://www.w3.org/2000/svg" xmlns:xlink="http://www.w3.org/1999/xlink" version="1.1"><rect x="0" y="0" width="1920" height="1080" fill="#000000"></rect><g transform="translate(935.1013401854898 405.8404692983074)"><path d="M598.3 -731C782.8 -689.4 944.9 -524.6 958.9 -344C972.9 -163.5 838.8 32.8 799.8 292.9C760.8 553.1 816.8 877.3 699.4 975.3C581.9 1073.3 291 945.1 63.3 858C-164.4 770.9 -328.8 724.8 -510.3 647.6C-691.8 570.5 -890.4 462.1 -908.7 316.4C-927 170.6 -765 -12.7 -638 -146.7C-511.1 -280.8 -419.2 -365.7 -318.7 -434.5C-218.2 -503.4 -109.1 -556.2 48.9 -623.5C206.9 -690.8 413.8 -772.5 598.3 -731" fill="#ffffff"></path></g></svg>